<?xml version="1.0" encoding="utf-8"?>
<!-- Generator: Adobe Illustrator 24.0.2, SVG Export Plug-In . SVG Version: 6.00 Build 0)  -->
<svg version="1.1" id="Слой_1" xmlns="http://www.w3.org/2000/svg" x="0px" y="0px"
     viewBox="0 0 501.4 63.3" style="enable-background:new 0 0 501.4 63.3;" xml:space="preserve">
<style type="text/css">
	.st0{fill:#FFFFFF;}
	.st1{fill-rule:evenodd;clip-rule:evenodd;fill:#FFFFFF;}
</style>
<g>
	<title>Layer 1</title>
	<path id="svg_1" class="st0" d="M0,54.6C0,58.1,1.9,60,5.5,60h6.7c3.6,0,5.4-1.9,5.4-5.4V41.5h4.2l7.6,14.7
		c1.5,2.8,3.8,3.8,6.4,3.8h7.8c4,0,6.1-2.4,3.8-6.6L39.9,40c-1.3-2.3-2.7-3.8-2.7-3.8V36c5.8-3.6,8.3-10.7,8.3-16.8
		c0-8.8-5-15.8-11.8-18C31,0.3,27.3,0,21.8,0H5.5C1.9,0,0,1.8,0,5.4V54.6z M17.6,26.5V15h2.7c1.9,0,3.3,0.1,4.7,0.7
		c2.4,1,2.7,2.8,2.7,4.4c0,4.5-2.1,6.3-6.3,6.3L17.6,26.5L17.6,26.5z"/>
	<path id="svg_2" class="st0" d="M61.9,54.6c0,3.5,1.9,5.4,5.5,5.4h28.9c3.6,0,5.5-1.9,5.5-5.4v-4.2c0-3.5-1.9-5.4-5.5-5.4H79.5
		v-7.7h11.3c3.6,0,5.5-1.8,5.5-5.4v-4.2c0-3.5-1.9-5.4-5.5-5.4H79.5V15h15.8c3.5,0,5.4-1.9,5.4-5.4V5.4c0-3.6-1.9-5.4-5.4-5.4H67.4
		c-3.6,0-5.5,1.8-5.5,5.4V54.6z"/>
	<path id="svg_3" class="st0" d="M112.9,53.7c-1.3,3.8,0.5,6.3,4.4,6.3h6.8c3.2,0,5.2-1.5,6-4.6l1.3-5.8h16.9l1.3,5.8
		c1,3.1,2.9,4.6,6.2,4.6h6.8c3.9,0,5.8-2.5,4.4-6.3L150.6,4.4c-1-3-3-4.4-6.2-4.4h-9.1c-3.3,0-5.2,1.4-6.2,4.4L112.9,53.7z
		 M135.4,35.6l2-8.3c1.1-4.1,2.4-11.1,2.4-11.1h0.2c0,0,1.4,7,2.5,11.1l1.8,8.3H135.4z"/>
	<path id="svg_4" class="st0" d="M180.8,54.6c0,3.5,1.9,5.4,5.5,5.4h16.4c19.2,0,31.3-11.3,31.3-30.1C233.9,11,221.9,0,202.7,0
		h-16.4c-3.6,0-5.5,1.8-5.5,5.4V54.6z M198.4,45V15h3.8c8.3,0,13.7,4.9,13.7,14.9s-5,15.1-13.7,15.1H198.4z"/>
	<path id="svg_5" class="st0" d="M339.2,55.6c0,3.5,1.9,5.4,5.5,5.4h30c3.6,0,5.5-1.9,5.5-5.4v-4.2c0-3.5-1.9-5.4-5.5-5.4h-17.9V6.4
		c0-3.6-1.8-5.4-5.4-5.4h-6.7c-3.6,0-5.5,1.8-5.5,5.4V55.6z"/>
	<path id="svg_6" class="st0" d="M391.5,38.6c0,13.6,10.1,23.4,25.8,23.4c15.6,0,25.7-9.8,25.7-23.4V6.4c0-3.6-1.8-5.4-5.4-5.4h-6.7
		c-3.6,0-5.4,1.8-5.4,5.4v32.2c0,4.9-3.3,7.3-8.3,7.3c-4.9,0-8.2-2.4-8.2-7.4V6.4c0-3.6-1.9-5.4-5.4-5.4h-6.8
		c-3.5,0-5.4,1.8-5.4,5.4L391.5,38.6L391.5,38.6z"/>
	<path id="svg_7" class="st0" d="M459.9,56.2c3.4,2.7,11.3,5.8,19.5,5.8c14.2,0,22-9.1,22-19.4c0-19.3-25.4-17.1-25.4-23.9
		c0-1.6,1.2-2.8,4.5-2.8c3.6,0,5.8,1.3,8.8,2.7c2.8,1.3,5.4,2,7.4-1.9l2.4-4.8c1.4-2.9,1.2-5.4-1.8-7.5c-3.1-2.1-9.8-4.3-16.7-4.3
		c-12.8,0-22.3,7.7-22.3,19.2c0,19.2,25.3,17.9,25.3,24.3c0,1.4-1,2.7-4.4,2.7c-4.7,0-8-2.7-9.9-3.4c-3.3-1.8-5.5-1.6-7.5,1.3
		l-3.2,4.6C456.2,52.4,457.8,54.6,459.9,56.2z"/>
	<path id="svg_8" class="st1" d="M267.2,5.7c0-2.8,2.3-5.1,5.1-5.1h37.5c2.8,0,5.1,2.3,5.1,5.1v39.2c0,2.8-2.3,5.1-5.1,5.1h-20.4
		l-18.2,12.8c-1.7,1.2-4,0-4-2.1V5.7z M277.4,24.4c0-1.5,1.3-2.8,2.8-2.8h8v-8.1c0-1.5,1.3-2.8,2.8-2.8s2.8,1.3,2.8,2.8v8.1h8
		c1.5,0,2.8,1.3,2.8,2.8s-1.3,2.8-2.8,2.8h-8v8.1c0,1.5-1.3,2.8-2.8,2.8s-2.8-1.3-2.8-2.8v-8.1h-8C278.7,27.2,277.4,26,277.4,24.4z"
		/>
</g>
</svg>
