<?xml version="1.0" encoding="utf-8"?>
<!-- Generator: Adobe Illustrator 24.0.2, SVG Export Plug-In . SVG Version: 6.00 Build 0)  -->
<svg version="1.1" id="Слой_1" xmlns="http://www.w3.org/2000/svg" x="0px" y="0px"
     viewBox="0 0 243 150" style="enable-background:new 0 0 243 150;" xml:space="preserve">
<style type="text/css">
	.st0{fill:#49ACF4;}
	.st1{fill-rule:evenodd;clip-rule:evenodd;fill:#49ACF4;}
</style>
<g>
	<title>Layer 1</title>
	<path id="svg_1" class="st0" d="M0.3,56.6c0,3.6,2,5.6,5.7,5.6h6.9c3.7,0,5.6-2,5.6-5.6V43h4.3l7.9,15.2c1.6,2.9,4,4,6.7,4h8
		c4.2,0,6.3-2.5,3.9-6.8l-7.8-13.9c-1.4-2.4-2.8-4-2.8-4v-0.2c6.1-3.7,8.6-11.1,8.6-17.4c0-9.2-5.2-16.4-12.2-18.7
		C32.4,0.3,28.5,0,22.8,0H6C2.2,0,0.3,1.9,0.3,5.6V56.6z M18.5,27.4V15.6h2.8c2,0,3.5,0.1,4.8,0.7c2.5,1,2.8,2.9,2.8,4.6
		c0,4.7-2.2,6.6-6.5,6.6H18.5z"/>
	<path id="svg_2" class="st0" d="M64.5,56.6c0,3.6,2,5.6,5.7,5.6h30c3.7,0,5.7-2,5.7-5.6v-4.3c0-3.6-2-5.6-5.7-5.6H82.7v-8h11.8
		c3.7,0,5.7-1.9,5.7-5.6v-4.3c0-3.6-2-5.6-5.7-5.6H82.7v-7.5h16.4c3.6,0,5.6-2,5.6-5.6V5.6c0-3.7-2-5.6-5.6-5.6h-29
		c-3.7,0-5.7,1.9-5.7,5.6V56.6z"/>
	<path id="svg_3" class="st0" d="M117.4,55.8c-1.4,3.9,0.5,6.5,4.6,6.5h7c3.3,0,5.4-1.6,6.2-4.8l1.3-6.1h17.6l1.3,6.1
		c1,3.2,3,4.8,6.4,4.8h7c4.1,0,6-2.6,4.6-6.5L156.5,4.6c-1-3.1-3.1-4.6-6.4-4.6h-9.4c-3.4,0-5.4,1.5-6.4,4.6L117.4,55.8z M140.7,37
		l2.1-8.7c1.1-4.2,2.5-11.5,2.5-11.5h0.2c0,0,1.5,7.3,2.6,11.5l1.9,8.7H140.7z"/>
	<path id="svg_4" class="st0" d="M187.8,56.6c0,3.6,2,5.6,5.7,5.6h17c19.9,0,32.4-11.8,32.4-31.3c0-19.6-12.5-31-32.4-31h-17
		c-3.7,0-5.7,1.9-5.7,5.6V56.6z M206.1,46.7V15.6h3.9c8.6,0,14.2,5.1,14.2,15.4s-5.2,15.7-14.2,15.7H206.1z"/>
	<path id="svg_5" class="st0" d="M74.7,142c0,3.6,2,5.6,5.7,5.6h31.1c3.7,0,5.7-2,5.7-5.6v-4.3c0-3.6-2-5.6-5.7-5.6H92.9V91
		c0-3.7-1.9-5.6-5.6-5.6h-6.9c-3.7,0-5.7,1.9-5.7,5.6V142z"/>
	<path id="svg_6" class="st0" d="M129,124.3c0,14.1,10.5,24.3,26.8,24.3c16.2,0,26.6-10.2,26.6-24.3V91c0-3.7-1.9-5.6-5.6-5.6h-6.9
		c-3.7,0-5.6,1.9-5.6,5.6v33.4c0,5.1-3.4,7.6-8.6,7.6c-5.1,0-8.5-2.5-8.5-7.7V91c0-3.7-2-5.6-5.6-5.6h-7c-3.6,0-5.6,1.9-5.6,5.6
		V124.3z"/>
	<path id="svg_7" class="st0" d="M199.9,142.6c3.5,2.8,11.7,6.1,20.2,6.1c14.7,0,22.8-9.4,22.8-20.2c0-20-26.4-17.7-26.4-24.8
		c0-1.6,1.2-2.9,4.7-2.9c3.7,0,6.1,1.4,9.2,2.8c2.9,1.4,5.6,2.1,7.7-2l2.5-4.9c1.5-3,1.2-5.6-1.8-7.8c-3.2-2.2-10.1-4.5-17.3-4.5
		c-13.2,0-23.1,8-23.1,19.9c0,19.9,26.3,18.6,26.3,25.2c0,1.5-1,2.8-4.6,2.8c-4.8,0-8.3-2.8-10.3-3.5c-3.4-1.8-5.7-1.6-7.8,1.4
		l-3.3,4.8C196.1,138.7,197.8,140.9,199.9,142.6z"/>
	<path id="svg_8" class="st1" d="M0,90.2c0-2.9,2.4-5.3,5.3-5.3h38.9c2.9,0,5.3,2.4,5.3,5.3v40.7c0,2.9-2.4,5.3-5.3,5.3H23.1
		L4.2,149.5c-1.8,1.2-4.2,0-4.2-2.2V90.2z M10.6,109.6c0-1.6,1.3-2.9,2.9-2.9h8.4v-8.4c0-1.6,1.3-2.9,2.9-2.9s2.9,1.3,2.9,2.9v8.4
		H36c1.6,0,2.9,1.3,2.9,2.9c0,1.6-1.3,2.9-2.9,2.9h-8.4v8.4c0,1.6-1.3,2.9-2.9,2.9s-2.9-1.3-2.9-2.9v-8.4h-8.4
		C11.9,112.6,10.6,111.2,10.6,109.6z"/>
</g>
</svg>
